<svg xmlns="http://www.w3.org/2000/svg" xmlns:xlink="http://www.w3.org/1999/xlink" id="Layer_1" x="0px" y="0px" viewBox="0 0 500 500" style="enable-background:new 0 0 500 500;" xml:space="preserve"><style type="text/css">	.st0{fill:#E0E0E0;}	.st1{fill:#EBEBEB;}	.st2{fill:#FAFAFA;}	.st3{fill:#F5F5F5;}	.st4{fill:#263238;}	.st5{fill:#455A64;}	.st6{fill:#FFBE9D;}	.st7{fill:#EB996E;}	.st8{fill:#39B54A;}	.st9{fill:#FFFFFF;}	.st10{opacity:0.3;}	.st11{opacity:0.6;}	.st12{fill:#1A5420;}</style><g id="freepik--background-complete--inject-42">	<rect x="58" y="39.6" class="st0" width="88.5" height="146.5"></rect>	<rect x="55" y="39.6" class="st1" width="88.5" height="146.5"></rect>	<rect x="58.8" y="42.6" class="st2" width="81" height="140.6"></rect>	<rect x="74.2" y="60.8" class="st1" width="49.8" height="104"></rect>	<path class="st0" d="M74.2,128.1c-0.1-9.7,8.6-19.2,18.2-20.6c4.6-0.7,9.5,0.3,13.8-1.5c7.7-3.1,10.1-13.3,17.8-16.3l0.3,75.2H74.2  V128.1z"></path>	<rect x="387.5" y="45.1" class="st0" width="84.9" height="88.5"></rect>	<rect x="381.8" y="45.1" class="st2" width="84.9" height="88.5"></rect>	<path class="st0" d="M466.7,133.6h-84.9V45h84.9V133.6z M381.8,133.5h84.8V45.1h-84.8L381.8,133.5z"></path>	<rect x="393.2" y="57" class="st2" width="62.1" height="64.7"></rect>	<path class="st0" d="M393.2,122.1c-0.4,0.7-1,1.3-1.5,1.8c-1,1.1-2.4,2.5-4,4s-3,2.9-4,3.9c-0.5,0.6-1.1,1.1-1.8,1.5  c0.4-0.7,1-1.2,1.5-1.8c1-1,2.4-2.5,4-4s3-2.9,4.1-3.9C391.9,123,392.5,122.5,393.2,122.1z"></path>	<path class="st0" d="M455.2,121.9c0.6,0.4,1.2,1,1.8,1.5c1,1,2.5,2.4,4,4s2.9,3,3.9,4.1c0.6,0.5,1.1,1.1,1.5,1.8  c-0.6-0.4-1.2-0.9-1.8-1.5c-1-1-2.5-2.4-4-4s-2.9-3-3.9-4.1C456.2,123.2,455.7,122.6,455.2,121.9z"></path>	<path class="st0" d="M455.1,57.2c0.4-0.7,1-1.3,1.5-1.8c1-1,2.4-2.5,3.9-4s3-2.9,4.1-3.9c0.5-0.6,1.1-1.1,1.8-1.5  c-0.4,0.6-0.9,1.2-1.5,1.8c-1,1-2.4,2.5-4,4s-3,2.9-4.1,3.9C456.3,56.2,455.7,56.7,455.1,57.2z"></path>	<path class="st0" d="M393,57.3c-0.7-0.4-1.3-1-1.8-1.5c-1-1-2.5-2.4-4-3.9s-2.9-3-3.9-4.1c-0.6-0.5-1.1-1.1-1.5-1.8  c0.7,0.4,1.2,0.9,1.8,1.5c1,1,2.5,2.4,4,4s2.9,3,3.9,4.1C392.1,56.1,392.6,56.7,393,57.3z"></path>	<path class="st0" d="M455.1,121.7c0-0.1,0-0.2,0-0.3c0-0.2,0-0.5,0-0.9c0-0.8,0-2,0-3.5c0-3.1,0-7.5-0.1-13.2  c0-11.3-0.1-27.5-0.1-46.8l0.2,0.2h-61.9l0,0l0.3-0.3c0,23.8,0,46,0,64.7l-0.2-0.2l44.8,0.1l12.6,0.1h3.3h1.2c-0.1,0-0.2,0-0.3,0  H454h-3.3l-12.5,0.1l-45,0.1h-0.2v-0.2c0-18.7,0-41,0-64.7v-0.1h0.3h61.9h0.2V57c-0.1,19.4-0.1,35.6-0.1,47c0,5.6,0,10.1-0.1,13.1  c0,1.5,0,2.7,0,3.4c0,0.4,0,0.7,0,0.9S455.1,121.7,455.1,121.7z"></path>	<rect x="413.9" y="79" class="st1" width="20.7" height="20.7"></rect>	<path class="st3" d="M344.2,459.8c-1.8-1.5-5.7-6.3-2.7-11.9c1.1-2,3.5-3.1,5.6-4s4.4-1.7,6.2-3.2c3.3-2.8,4.3-7.5,6.5-11.3  c2.5-4.4,7.3-7.6,12.3-7.4c5.7,0.3,10.5,5,12.7,10.3s2.2,11.3,2.3,17.1c0,3.2-0.1,6.8-2.5,9c-2.2,2-5.4,2-8.4,1.9l-31.4-1"></path>	<path class="st0" d="M404.2,373.4h-82.6l14.9,88.7c0.6,3.8,3.4,6.9,7,7.9l0.3,0.1c0.2,0.1,0.5,0.1,0.7,0.2c0.6,0.1,1.1,0.2,1.7,0.2  v0.1l0.4-0.1h36.8c0.7,0,1.3-0.1,2-0.2c4.4-0.7,7.8-4.2,8.4-8.7l7.2-61.1l0.3-2.4l0,0l2.8-24.2L404.2,373.4z M388.7,430h-8.5  l0.9-25.7h9.8L388.7,430z M391.7,404.3h8.1l-3,25.7h-7.3L391.7,404.3z M367.5,458.5l-0.5-22.4h12.2l-0.8,22.4L367.5,458.5z   M354.3,436.2h11.9l0.5,22.4H356L354.3,436.2z M355.2,458.5h-9.9c-1-6-2.2-13.9-3.5-22.4h11.7L355.2,458.5z M353.8,430l-2-25.7  h13.6L366,430H353.8z M366.8,430l-0.6-25.7h14l-0.9,25.7H366.8z M366.1,398.1l-0.5-23.8h15.7l-0.8,23.8H366.1z M365.3,398.1h-13.9  l-1.9-23.8h15.2L365.3,398.1z M350.5,398.1h-14.7c-0.5-3.3-1-6.4-1.5-9.2c-1.5-9.6-2.1-13.3-2.4-14.6h16.8L350.5,398.1z M351,404.3  l2,25.7h-12.2c-0.4-2.6-0.8-5.2-1.2-7.9c-1-6.1-1.9-12.1-2.8-17.8H351z M340,430h-8l-4.3-25.7h8.2C337.2,412.2,338.6,421.1,340,430  z M341,436.2c1.2,7.7,2.4,15.4,3.5,22.4h-7.7l-3.9-22.4L341,436.2z M379.3,458.5l0.8-22.4h8.1l-1.9,22.4H379.3z M381.3,398.1  l0.8-23.8h11.4l-2,23.8H381.3z M331.1,374.3c0.3,1.7,1.8,11.1,3.9,23.8h-8.3l-4-23.8H331.1z M393.5,458.5h-6.4l1.9-22.4h7.1  L393.5,458.5z M400.6,398.1h-8.3l2-23.8h9.1L400.6,398.1z"></path></g><g id="freepik--Floor--inject-42">	<path class="st4" d="M451.2,471.4c0,0.1-95.9,0.3-214.2,0.3s-214.3-0.1-214.3-0.3s95.9-0.3,214.3-0.3S451.2,471.3,451.2,471.4z"></path></g><g id="freepik--Device--inject-42">	<path class="st5" d="M336.5,363.1L223,363c-13.7,0-24.7-11.1-24.7-24.7V53.7c0-13.7,11.1-24.7,24.7-24.7c0,0,0,0,0.1,0l113.5,0.1  c13.7,0,24.7,11.1,24.7,24.7l-0.1,284.5C361.3,352,350.2,363.1,336.5,363.1C336.5,363.1,336.5,363.1,336.5,363.1z"></path>	<path class="st2" d="M336.5,39.1h-22c-3,0.1-5.4,2.6-5.3,5.6c0,0,0,0,0,0v4c0.1,3-2.3,5.5-5.3,5.6c0,0,0,0,0,0h-42.9  c-3-0.1-5.4-2.6-5.3-5.6v-4c0.1-3-2.3-5.5-5.3-5.6h-27c-9.6,0-17.3,7.7-17.3,17.3c0,0,0,0,0,0l-0.1,277.8c0,9.6,7.7,17.3,17.3,17.3  l113.3,0.1c9.6,0,17.3-7.7,17.3-17.3c0,0,0,0,0,0V56.5C353.8,46.9,346,39.2,336.5,39.1z"></path>	<rect x="315.5" y="48.2" class="st4" width="1.3" height="1.8"></rect>	<rect x="317.6" y="47.4" class="st4" width="1.3" height="2.5"></rect>	<rect x="319.6" y="46.8" class="st4" width="1.3" height="3.1"></rect>	<rect x="321.7" y="45.6" class="st4" width="1.3" height="4.3"></rect>	<path class="st4" d="M341.5,50h-6.3c-0.3,0-0.5-0.2-0.5-0.5v-3.1c0-0.2,0.2-0.5,0.5-0.5l0,0h6.3c0,0,0.1,0,0.1,0c0,0,0,0.1,0,0.1v1  h0.7c0.1,0,0.1,0.1,0.1,0.1v1.5c0,0.1-0.1,0.1-0.1,0.1h-0.7v1c0.1,0,0.1,0.1,0.1,0.1C341.6,50,341.6,50,341.5,50z M341.4,46.2h-6.2  c-0.1,0-0.2,0.1-0.2,0.2c0,0,0,0,0,0v3.1c0,0.1,0.1,0.2,0.2,0.2c0,0,0,0,0,0h6.2v-1c0-0.1,0.1-0.1,0.1-0.1h0.7v-1.3h-0.7  c-0.1,0-0.1,0-0.1-0.1c0,0,0,0,0,0V46.2z"></path>	<polygon class="st4" points="335.5,49.3 335.5,46.7 340.9,46.7 340.9,47.9 340.9,48.1 340.9,49.3  "></polygon>	<path class="st4" d="M329,49.8c0-0.3-0.2-0.5-0.5-0.5c-0.3,0-0.5,0.2-0.5,0.5c0,0.2,0.2,0.5,0.4,0.5c0,0,0,0,0,0  C328.8,50.2,329,50,329,49.8z"></path>	<path class="st4" d="M326.9,48.7l0.6,0.6c0.5-0.6,1.4-0.6,2,0c0,0,0,0,0,0l0.6-0.6c-0.4-0.4-1-0.7-1.6-0.7  C327.9,48,327.3,48.2,326.9,48.7z"></path>	<path class="st4" d="M328.5,46.7c-0.9,0-1.8,0.3-2.5,1l0.6,0.6c1.1-1.1,2.8-1.1,3.8,0l0.6-0.6C330.3,47,329.4,46.7,328.5,46.7z"></path>	<path class="st4" d="M325,46.8l0.6,0.6c1.6-1.6,4.2-1.6,5.7,0l0.6-0.6C330,44.9,326.9,44.9,325,46.8L325,46.8z"></path>	<path class="st4" d="M279.8,73.7h7.6c0.5,0,1,0.4,1,0.9v5.2c0,0.5-0.4,0.9-1,0.9h-7.6c-0.5,0-1-0.4-1-0.9v-5.2  C278.8,74.1,279.2,73.7,279.8,73.7z"></path>	<path class="st4" d="M280.9,74.2h-1V73c-0.1-2,1.4-3.7,3.5-3.8c2-0.1,3.7,1.4,3.8,3.5c0,0.1,0,0.3,0,0.4v0.8h-1V73  c0.1-1.5-1-2.7-2.5-2.8c-1.5-0.1-2.7,1-2.8,2.5c0,0.1,0,0.2,0,0.3V74.2z"></path>	<path class="st1" d="M207,248.9c0.2-18.3,10.2-35.1,26.2-44c11-6,23.8-7.6,36-10.4s24.9-7.4,32.5-17.5c10.2-13.5,8.3-32.8,15.6-48  c7-14,21-23.1,36.7-23.9v232.5c0,7.8-6.3,14.1-14.1,14.1l0,0H221.1c-7.8,0-14.1-6.3-14.1-14.1l0,0V248.9z"></path>	<path class="st4" d="M232,127.8c0-8.6,4.5-13.8,10.8-13.8s10.8,5.1,10.8,13.8s-4.6,13.8-10.8,13.8S232,136.4,232,127.8z   M250.8,127.8c0-7.2-3.2-11.2-8-11.2s-8,4-8,11.2s3.2,11.2,8,11.2S250.8,135,250.8,127.8L250.8,127.8z"></path>	<path class="st4" d="M277.1,127.6c0,9.2-5,14-12.4,14c-2.2,0.1-4.5-0.4-6.4-1.5l1.1-2.2c1.6,0.9,3.4,1.4,5.3,1.3  c5.8,0,9.6-3.8,9.6-11.1c0-0.6,0-1.4-0.1-2.2c-1.4,3-4.5,4.6-8.3,4.6c-5.4,0-9.1-3.2-9.1-8.1s4-8.3,9.2-8.3  C273.2,114,277.1,119,277.1,127.6z M273.3,122.2c0-3-2.5-5.8-7.1-5.8c-3.9,0-6.6,2.3-6.6,5.9s2.6,5.8,6.8,5.8  S273.3,125.6,273.3,122.2L273.3,122.2z"></path>	<path class="st4" d="M281.2,122.9c-0.1-1.1,0.8-2,1.9-2.1c0,0,0.1,0,0.1,0c1.1,0,2.1,0.9,2.1,2.1c0,0,0,0,0,0  c0,1.2-0.9,2.1-2.1,2.1C282.1,125,281.2,124.1,281.2,122.9C281.2,122.9,281.2,122.9,281.2,122.9z M281.2,139.4  c-0.1-1.1,0.8-2,1.9-2.1c0,0,0.1,0,0.1,0c1.1,0,2.1,0.9,2.1,2.1c0,0,0,0,0,0c0,1.2-0.9,2.1-2.1,2.1  C282.1,141.5,281.2,140.6,281.2,139.4C281.2,139.4,281.2,139.4,281.2,139.4z"></path>	<path class="st4" d="M307.8,138.9v2.5h-19v-2l11.2-11c3.1-3,3.6-4.8,3.6-6.7c0-3.1-2.2-5.1-6.3-5.1c-2.8-0.2-5.5,0.9-7.4,3l-2-1.7  c2.1-2.5,5.5-3.9,9.6-3.9c5.5,0,9,2.8,9,7.3c0,2.6-0.8,4.9-4.5,8.5l-9.2,9L307.8,138.9z"></path>	<path class="st4" d="M311.2,127.8c0-8.6,4.5-13.8,10.8-13.8s10.8,5.1,10.8,13.8s-4.6,13.8-10.8,13.8S311.2,136.4,311.2,127.8z   M329.9,127.8c0-7.2-3.2-11.2-8-11.2s-8,4-8,11.2s3.3,11.2,8.1,11.2S329.9,135,329.9,127.8z"></path>			<ellipse transform="matrix(0.2101 -0.9777 0.9777 0.2101 97.1994 298.9401)" class="st0" cx="233.6" cy="89.3" rx="19.5" ry="19.5"></ellipse></g><g id="freepik--Character--inject-42">	<path class="st4" d="M127.7,244.8c-1.4-1-3.2-1.4-4.7-2.2s-3.1-2-3.2-3.8c-0.2-2.6,2.6-4.5,2.8-7c0.2-3.6-4.7-5.6-5.4-9.1  c-0.6-2.9,1.9-5.7,1.8-8.7s-2.7-5.2-3.9-8c-2.8-6.4,2.3-14.6-1.5-20.4c-1.2-1.5-2.5-2.8-3.9-4c-1.3-1.3-2.5-3-2.3-4.9l-7.2-3.3  c-2.4-3.7-7.9-3.8-12-2.3s-7.8,4.4-12,5.5c-2.1,0.5-1.8-2.6-3.9-2.1c-2.8,0.6-6.2,3.8-7,6.5c-0.8,2.9-1.4,6.1-2.5,8.9  c-1.1,3.1-4.5,5.3-4.8,8.6c-0.4,3.8,3.6,7,3.6,10.8c0,4.1-4.6,7.9-3.1,11.8c0.8,2.2,3.4,3.4,4.3,5.6c1.2,3-1.2,6.4-1,9.6  s2.9,5.7,5.5,7.6c9.8,7.6,20.7,13.7,32.4,17.8c5.1,1.7,10.4,3.1,15.8,2.6s10.7-3,13.5-7.6C131.2,252.9,131.2,247.3,127.7,244.8z"></path>	<path class="st4" d="M107,174.9c-2-8.2-10.3-13.1-18.5-11.1c-2.7,0.7-5.2,2.1-7.2,4.1c-1.5,1.6-2.8,3.5-4.6,4.7  c-2.1,1.4-2.4,1-4.7,1.9s-6.5,7.3-6.5,9.8l-1.2,10.9c0.1,2.5,3.4,4,5.8,3.1s4-3.1,5.3-5.3s2.5-4.6,4.6-6c3.4-2.4,8.1-1.6,12.3-0.8  s8.9,1.4,12.2-1.3C107.3,182.6,107.9,178.4,107,174.9z"></path>	<path class="st6" d="M109.3,190.4c-0.5-7.1-5.2-15.7-12.2-15l-22,5.6c-2.1,0.2-3.7,2.1-3.7,4.2l2.5,53h-0.2c0,0,9,18.9,23.5,14.4  c2.9-0.9,0.3-8.1,0.8-11.3h0.1c0-0.4,0-0.7,0-1.1c0.3-2.4,0.3-4.9,0.1-7.3l0,0c0-4.3,0-6,0-6s9-1.5,10.9-13.3  C110.1,207.9,109.8,198.2,109.3,190.4z"></path>	<path class="st4" d="M107.5,199.5c0,0.8-0.6,1.5-1.5,1.5c-0.8,0.1-1.5-0.5-1.6-1.3c0,0,0,0,0,0c0-0.8,0.6-1.5,1.5-1.5  C106.7,198,107.4,198.6,107.5,199.5C107.5,199.4,107.5,199.5,107.5,199.5z"></path>	<path class="st4" d="M107.2,195.4c-0.2,0.2-1.3-0.6-3-0.6s-2.8,0.8-3,0.6s0.1-0.4,0.6-0.8c0.7-0.5,1.5-0.8,2.4-0.8  c0.8,0,1.7,0.3,2.3,0.8C107.1,195,107.3,195.3,107.2,195.4z"></path>	<path class="st4" d="M92.1,200c0,0.8-0.6,1.5-1.4,1.5c-0.8,0.1-1.5-0.5-1.6-1.3c0,0,0,0,0,0c0-0.8,0.6-1.5,1.4-1.5  C91.3,198.6,92,199.2,92.1,200C92.1,200,92.1,200,92.1,200z"></path>	<path class="st4" d="M91.2,195.7c-0.2,0.2-1.3-0.6-3-0.6s-2.8,0.8-3,0.6s0.1-0.4,0.6-0.8c0.7-0.5,1.5-0.7,2.4-0.7  c0.8,0,1.7,0.3,2.3,0.8C91.1,195.3,91.3,195.6,91.2,195.7z"></path>	<path class="st4" d="M97.2,207.8c0.9-0.3,1.7-0.4,2.6-0.5c0.4,0,0.8-0.1,0.9-0.4c0-0.4-0.1-0.9-0.3-1.2c-0.4-1-0.8-2.1-1.2-3.2  c-1.7-4.5-3-8.2-2.8-8.3s1.7,3.5,3.4,8c0.4,1.1,0.8,2.2,1.2,3.2c0.3,0.5,0.3,1.1,0.2,1.6c-0.1,0.3-0.4,0.5-0.7,0.6  c-0.2,0.1-0.5,0.1-0.7,0.1C98.9,207.9,98,207.9,97.2,207.8z"></path>	<path class="st7" d="M98.3,227c-5.5,0.1-11-1.3-15.8-4.2c0,0,3.8,8.1,15.6,7L98.3,227z"></path>	<path class="st7" d="M96.5,211.7c-0.6-0.8-1.6-1.2-2.6-1.1c-0.7,0.1-1.4,0.4-1.8,1c-0.4,0.6-0.5,1.3-0.1,1.9  c0.5,0.6,1.4,0.8,2.1,0.5c0.8-0.3,1.5-0.7,2.1-1.2c0.2-0.1,0.3-0.3,0.5-0.5C96.7,212.2,96.7,211.9,96.5,211.7"></path>	<path class="st4" d="M92.4,208.9c0.3,0,0.3,1.8,1.8,3s3.4,1.1,3.4,1.3s-0.4,0.3-1.2,0.4c-1,0-2-0.3-2.8-1c-0.8-0.6-1.3-1.5-1.4-2.5  C92.1,209.3,92.2,208.9,92.4,208.9z"></path>	<path class="st4" d="M92,192.9c-0.2,0.4-1.8,0.2-3.7,0.5s-3.4,0.8-3.7,0.4c-0.1-0.2,0.2-0.6,0.8-1c0.8-0.5,1.8-0.9,2.7-1  c1-0.1,2,0,2.9,0.3C91.7,192.3,92,192.7,92,192.9z"></path>	<path class="st4" d="M106.6,190.7c-0.3,0.4-1.4,0-2.8,0s-2.5,0.3-2.8-0.1c-0.1-0.2,0.1-0.6,0.6-0.9c1.4-0.9,3.1-0.8,4.4,0.1  C106.6,190.1,106.7,190.5,106.6,190.7z"></path>	<path class="st4" d="M96.7,172.4l-1-1.3c-6.8,0.8-13.5,2.5-19.8,5.1c-2.5,1-5.1,2.3-6.8,4.4c-2.4,2.9-2.8,6.9-3,10.7  c-1,14.3-1.9,29,2.6,42.6c1.1-1.7,3.2-2.5,5.2-2.9s4.1-0.5,6-1.4c2-1.1,3.4-3,4-5.2c0.5-2.2,0.3-4.5-0.7-6.6  c-1.1-2.3-3-4.5-2.6-6.9s3.5-4.1,4.2-6.6c1.2-4.4-5-8.3-3.7-12.7c0.6-1.6,1.8-2.9,3.3-3.6c1.5-0.8,3.2-1.2,4.7-1.9  C94.2,183.6,97.2,178.1,96.7,172.4z"></path>	<path class="st6" d="M156.2,262.2l-13.8,21.4c1.1,1.6,2.9,2.5,4.8,2.4c3.3-0.1,7.9-8.4,8.4-10.1s-0.2-3.3,0.3-4.4s0.3-4.2,0.3-4.2  C156.2,267.6,159.2,263.5,156.2,262.2z"></path>	<path class="st4" d="M138.6,283.7l7.2-28.4c0.2-0.8,0.8-1.6,1.5-2l10.4-5.9c0.6-0.4,1.4-0.2,1.9,0.4l0,0c0.2,0.3,0.3,0.8,0.2,1.2  l-7.6,29.9L138.6,283.7z"></path>	<polygon class="st8" points="134.9,305.7 151.6,274.9 145.3,266.7 121.9,284.5 128,301.5  "></polygon>	<path class="st7" d="M151.8,281.5c0.1-0.4,0.3-0.8,0.3-1.3c0.1-1.2,0-2.4-0.4-3.6v-0.1v-0.1c0.3-0.5,0.4-1,0.2-1.6  c-0.2-0.6-0.6-1.1-1.2-1.5l-0.2-0.1l0.1-0.2l1.9-2.8c0.2-0.2,0.3-0.5,0.4-0.7c0.1-0.2,0.1-0.5-0.1-0.7c-0.3-0.5-0.7-1-1.2-1.3  l-0.2-0.2l0.2-0.2c0.5-0.6,1.1-1.2,1.6-1.8c1-1,1.9-2.1,2.8-3.2c0.4-0.5,0.7-1.1,1-1.6c0.1-0.3,0.2-0.5,0.2-0.8  c0-0.3-0.1-0.4-0.2-0.4h-0.1c-0.3,0-0.6,0-0.9,0.1c-0.3,0.1-0.7,0.3-1,0.4c-0.6,0.3-1.2,0.7-1.7,1c-1,0.7-1.9,1.3-2.7,1.9l-1.7,1.2  c-0.2,0.2-0.4,0.3-0.6,0.4c0.2-0.2,0.3-0.4,0.5-0.5c0.4-0.3,0.9-0.8,1.6-1.4s1.6-1.2,2.6-1.9c0.5-0.4,1.1-0.7,1.7-1.1  c0.3-0.2,0.7-0.3,1-0.5c0.4-0.2,0.8-0.2,1.2-0.2h-0.1c0.4,0.1,0.8,0.5,0.7,0.9c0,0.3-0.1,0.7-0.3,1c-0.3,0.6-0.6,1.2-1.1,1.7  c-0.9,1.1-1.8,2.2-2.8,3.2c-0.6,0.6-1.1,1.2-1.6,1.7v-0.4c0.6,0.4,1,0.9,1.3,1.6c0.2,0.3,0.2,0.7,0.1,1.1c-0.1,0.3-0.3,0.6-0.5,0.8  c-0.7,1-1.3,1.9-1.9,2.8v-0.3c0.6,0.4,1.1,1,1.3,1.7c0.2,0.6,0.1,1.3-0.3,1.9v-0.1c0.3,1.2,0.4,2.5,0.2,3.7c-0.1,0.3-0.2,0.6-0.3,1  C151.9,281.5,151.8,281.6,151.8,281.5z"></path>	<path class="st5" d="M159.6,247.7c-0.3,0.2-0.5,0.4-0.9,0.6c-0.6,0.4-1.4,0.9-2.4,1.5l-3.6,2.2l-2.2,1.2c-0.8,0.4-1.5,0.9-2.2,1.4  c-0.6,0.6-1,1.4-1.1,2.2c-0.2,0.8-0.4,1.6-0.6,2.4l-1.1,4.1c-0.3,1.2-0.6,2.1-0.8,2.7c-0.1,0.3-0.2,0.7-0.4,1c0-0.3,0.1-0.7,0.2-1  c0.1-0.7,0.4-1.6,0.6-2.8s0.6-2.6,1-4.1c0.2-0.8,0.4-1.6,0.6-2.4c0.2-0.9,0.6-1.8,1.2-2.5c0.7-0.6,1.5-1.1,2.3-1.5l2.2-1.2l3.7-2  c1.1-0.6,1.9-1,2.5-1.3C158.9,248.1,159.2,247.9,159.6,247.7z"></path>	<path class="st9" d="M152.7,257.4c-0.3,0.6-0.3,1.2-0.1,1.3s0.6-0.3,0.9-1s0.3-1.2,0.1-1.3S152.9,256.8,152.7,257.4z"></path>	<path class="st8" d="M100.8,240.2L100.8,240.2c7.2,2.6,13.1,8,16.4,14.9l22.4,47.6l19.3,7.8l-17,4.9l-15.1-11.1L100.8,240.2z"></path>	<path class="st2" d="M141.9,315.5l-8.1,6.3l-40.5-41.7l-23.2-41.8l2.7-7.8l17.9,7.5l6.4,9.5l1.4-12l1.1,1.6l1.9,5.1  c0,0,17.6,14.6,21.4,26.2c3.1,9.7,2.2,29.7,4.1,35.1L141.9,315.5z"></path>	<path class="st8" d="M65.7,237.7c-0.3,0.8-17.3,7.7-18.1,13.6s12.2,52.1,12.2,52.1l20.7,18.3h53.2l-16.9-31.6  c-3.6-6.8-8.2-13.1-13.7-18.6c-5-5.1-11-11.3-14.1-15c-3.4-4.1-17.7-23-17.7-23L65.7,237.7z"></path>	<path class="st4" d="M76.4,239.6c1,0.4,2,0.8,3,1.4c1.8,0.9,4.3,2.2,7.1,3.6l3.1,1.6l-0.4,0.2c-0.1-1.9,0-3.7,0.3-5.6  c0.1-0.7,0.3-1.4,0.6-2.1c-0.1,0.7-0.2,1.4-0.3,2.2c-0.2,1.8-0.3,3.7-0.2,5.5v0.4l-0.4-0.2l-3.1-1.6c-2.8-1.4-5.2-2.8-7-3.7  C78.3,240.8,77.3,240.2,76.4,239.6z"></path>	<path class="st4" d="M117.4,281.7c-0.3-0.4-0.6-0.9-0.8-1.4l-2.2-3.8c-1.8-3.2-4.4-7.6-7.2-12.4s-5.5-9.1-7.5-12.2l-2.3-3.7  c-0.3-0.4-0.6-0.9-0.8-1.4c0.4,0.4,0.7,0.8,1,1.3c0.6,0.8,1.4,2.1,2.4,3.6c2,3.1,4.7,7.4,7.6,12.2s5.3,9.2,7.1,12.5  c0.9,1.6,1.6,2.9,2,3.9C117,280.7,117.2,281.2,117.4,281.7z"></path>	<g class="st10">		<path d="M109.2,313.9c3.1,0.5,6.3,1,9.3,0.5s6.1-2.5,7.1-5.5c0.2-1,0.5-1.9,1.2-2.7c1.2-1.1,3.1-0.4,4.7-0.6   c1.8-0.3,3.4-1.4,4.3-3c0.9-1.6,1.5-3.3,1.8-5.1c0.3-0.9,0.4-1.8,0.3-2.6c-0.1-0.9-0.6-1.7-1.4-2.1c-1.2-0.5-2.6,0.2-3.7,1   c-8.8,6.3-16.8,13.7-24.8,21"></path>	</g>	<path class="st6" d="M129.1,278.6c0,0,3.1-7,4.7-8s9.7-5.7,9.7-5.7l-1,3.9l7.9-5.5c1-0.6,6.6-5.8,7.6-3.8c0.7,1.4-3.9,5.2-4.5,6.1  c-1.5,2.1-1,1.9-1,1.9s1.7,1,0.8,2.5c-0.7,1.2-1.4,2.3-2.3,3.3c0,0,2.2,0.8,0.9,3.6c0.4,1.2,0.4,2.4,0.2,3.7  c-0.4,2.1-4.2,6.2-4.2,6.2l-19.3,9.2l-7.8-13.2L129.1,278.6z"></path>	<path class="st8" d="M84.2,265.5l12.3,26.3l27.4-11.9c0,0,11.4,6.6,9.8,13.9L109.1,314c-4.7,3.8-10.7,5.6-16.7,4.9l0,0  c-6.4-0.8-12.2-4.4-15.8-9.8l-17.8-27.1l-10-16.3c-3.3-5.2-3.1-11.8,0.4-16.9c0.9-1.3,2.1-2.5,3.5-3.3  C57.2,242.7,70.4,241.6,84.2,265.5z"></path>	<path class="st7" d="M144.9,267c-1.2,1.1-2.6,2-4,2.8c-1.3,0.9-2.8,1.7-4.3,2.4c1.2-1,2.6-2,4-2.8C142,268.4,143.4,267.6,144.9,267  z"></path>	<path class="st7" d="M152.6,266.7c-1.1,1.4-2.3,2.7-3.6,3.9c-1.2,1.3-2.5,2.5-3.9,3.5c1.1-1.4,2.3-2.7,3.6-3.9  C149.9,269,151.2,267.8,152.6,266.7z"></path>	<path class="st7" d="M151.6,272.7c-0.4,0.9-1,1.7-1.7,2.4c-1,1.2-2,2.1-2.1,2c0.4-0.9,1-1.7,1.7-2.4  C150.1,273.9,150.8,273.2,151.6,272.7z"></path>	<path class="st7" d="M152,276.7c0.1,0.1-0.3,0.7-0.9,1.5s-1,1.4-1.1,1.3s0.2-0.8,0.7-1.6S151.9,276.6,152,276.7z"></path>	<path class="st4" d="M104.9,316.6c0,0,0,0,0.1-0.1l0.4-0.3l1.6-1.2l5.9-4.7l21.1-16.5l-0.1,0.2c0-1.4-0.3-2.7-0.8-4  c-0.6-1.3-1.4-2.6-2.3-3.7c-2-2.4-4.4-4.4-7-6h0.2l-14.2,6.2L96.7,292l-0.2,0.1l-0.1-0.2c-3.6-7.1-7-13.9-10.4-19.7  c-1.7-2.9-3.4-5.6-4.9-8.2s-3-4.9-4.5-6.9c-2.2-3.3-5.1-6-8.5-7.9c-0.6-0.4-1.1-0.6-1.6-0.9s-0.9-0.4-1.2-0.6l-0.7-0.3  c-0.1,0-0.2-0.1-0.2-0.1c3,1,5.7,2.6,8.1,4.7c1.7,1.5,3.2,3.2,4.5,5c1.5,2,3,4.4,4.6,6.9s3.3,5.2,5,8.1c3.4,5.8,6.8,12.6,10.5,19.7  l-0.3-0.1l13.2-5.7l14.2-6.1l0.1,0l0.1,0.1c2.7,1.7,5.1,3.7,7.1,6.1c0.9,1.2,1.7,2.5,2.3,3.8c0.5,1.3,0.8,2.8,0.8,4.2v0.1l-0.1,0.1  L113,310.5l-6,4.6l-1.6,1.2l-0.4,0.3L104.9,316.6z"></path>	<path class="st4" d="M94.9,300.1c-0.2-0.1,0.6-1.9,1-4.4s0.4-4.5,0.6-4.5c0.3,1.5,0.3,3.1,0,4.6C96.3,297.3,95.8,298.8,94.9,300.1z  "></path>	<path class="st8" d="M245.5,377.5l14.3,18c0,0,23.1-8.5,26-5.5L252,419l-23.5-27L245.5,377.5z"></path>	<g class="st11">		<path class="st9" d="M248.1,402.9c-0.5,0.8-0.3,1.8,0.4,2.4c0.8,0.5,1.8,0.4,2.4-0.4c0.5-0.8,0.3-1.9-0.4-2.5   c-0.9-0.5-1.9-0.2-2.4,0.7"></path>	</g>	<g class="st11">		<path class="st9" d="M252,419l-2.3-2.8l33.3-26.8c0,0,2.1-0.6,2.8,0.6L252,419z"></path>	</g>	<path class="st4" d="M260.2,394.8c0.1,0.2-0.6,1-1,2.2s-0.2,2.3-0.4,2.4s-0.8-1.1-0.3-2.6S260.1,394.6,260.2,394.8z"></path>	<path class="st4" d="M265,393.2c0.2,0.1-0.3,1-0.3,2.2s0.5,2,0.3,2.2s-1.1-0.7-1.1-2.2S264.9,393,265,393.2z"></path>	<path class="st4" d="M270.7,395.7c-0.1,0.2-1.1-0.5-1.4-1.7s0.1-2.3,0.3-2.2s0.1,1,0.4,2S270.8,395.5,270.7,395.7z"></path>	<path class="st4" d="M256.5,391c0.1,0.2-0.9,0.6-1.8,1.5s-1.4,1.8-1.6,1.7s0-1.3,1-2.3S256.4,390.8,256.5,391z"></path>	<g class="st10">		<polygon points="248.3,381 250.9,384.2 234.1,398.3 231.7,395.5   "></polygon>	</g>	<path class="st4" d="M253.5,387.5c0.1,0.1-0.5,0.7-1.7,1.4c-0.7,0.4-1.4,0.8-2.2,1c-0.5,0.1-0.9,0.2-1.4,0.3c-0.3,0-0.6,0-0.9,0  c-0.4-0.1-0.8-0.4-0.8-0.8c0-0.4,0.1-0.8,0.4-1c0.2-0.2,0.4-0.3,0.7-0.5c1.2-0.6,2.5-0.9,3.8-0.9c0.8-0.1,1.5,0.1,2.2,0.5  c0,0.1-0.9-0.1-2.2,0c-0.8,0.1-1.5,0.2-2.2,0.5c-0.4,0.1-0.8,0.3-1.2,0.5c-0.4,0.2-0.8,0.5-0.7,0.7c0,0.1,0,0.1,0.2,0.1  c0.2,0,0.4,0,0.6,0c0.4-0.1,0.9-0.1,1.3-0.2c0.7-0.2,1.5-0.5,2.2-0.8C252.2,388.1,252.8,387.7,253.5,387.5z"></path>	<path class="st4" d="M253.5,387.9c0,0.1-0.9-0.2-1.9-1.3c-0.9-1-1.5-2.2-1.8-3.5c-0.2-0.6-0.1-1.3,0.4-1.8c0.3-0.3,0.7-0.3,1.1-0.1  c0.3,0.1,0.5,0.3,0.7,0.5c1,0.9,1.7,2.2,1.8,3.5c0.1,1.4-0.4,2.2-0.5,2.2c0-0.7,0-1.4,0-2.1c-0.1-0.7-0.4-1.4-0.8-2  c-0.2-0.4-0.5-0.7-0.9-1c-0.4-0.3-0.7-0.5-0.9-0.3c-0.2,0.3-0.2,0.7-0.1,1.1c0.1,0.4,0.2,0.9,0.4,1.3c0.3,0.7,0.7,1.4,1.1,2  C252.9,387.3,253.6,387.8,253.5,387.9z"></path>	<path class="st8" d="M229.9,432.8l-0.9,23.5c0,0,23.6,8.8,23.8,13.1l-45.6-0.1l-0.1-36.6L229.9,432.8z"></path>	<g class="st11">		<path class="st9" d="M214.9,454.3c-0.9,0.3-1.5,1.2-1.3,2.1c0.2,0.9,1.2,1.5,2.1,1.3c1-0.3,1.5-1.3,1.4-2.3   c-0.4-0.9-1.4-1.4-2.3-1.1"></path>	</g>	<g class="st11">		<path class="st9" d="M207.2,469.3l0.1-3.7l43.6,1.5c0,0,2,0.9,1.8,2.3L207.2,469.3z"></path>	</g>	<path class="st4" d="M229.7,456c0,0.2-1.1,0.3-2.2,1s-1.7,1.6-1.9,1.5s0.1-1.4,1.5-2.2S229.8,455.8,229.7,456z"></path>	<path class="st4" d="M234.5,458c0,0.2-0.9,0.6-1.7,1.5s-1,1.9-1.2,1.9s-0.4-1.3,0.6-2.4S234.5,457.8,234.5,458z"></path>	<path class="st4" d="M237.2,463.8c-0.2,0-0.5-1.1,0.1-2.3s1.6-1.7,1.7-1.5s-0.6,0.8-1,1.8S237.4,463.7,237.2,463.8z"></path>	<path class="st4" d="M229.4,450.7c-0.1,0.2-1.1-0.1-2.4,0s-2.2,0.5-2.4,0.3s0.8-1,2.3-1.1S229.5,450.5,229.4,450.7z"></path>	<g class="st10">		<polygon points="229.7,437.4 229.6,441.6 207.1,441.4 207.1,437.6   "></polygon>	</g>	<path class="st4" d="M229.4,445.9c-0.7,0.2-1.5,0.2-2.3,0c-1.3-0.2-2.6-0.7-3.7-1.4c-0.3-0.1-0.5-0.3-0.7-0.5  c-0.3-0.3-0.3-0.8-0.1-1.2c0.2-0.3,0.6-0.5,1-0.5c0.3,0,0.6,0,0.9,0.1c1.3,0.3,2.5,1,3.5,1.9c1.1,1,1.4,1.8,1.3,1.9  s-0.6-0.6-1.7-1.4c-0.6-0.5-1.3-0.8-2-1.1c-0.4-0.2-0.9-0.3-1.3-0.4c-0.5-0.1-0.9-0.1-1,0.1s-0.1,0.1,0.1,0.3  c0.2,0.2,0.3,0.3,0.5,0.4c0.4,0.3,0.8,0.5,1.2,0.7c0.7,0.4,1.4,0.6,2.2,0.9C228.1,445.5,228.8,445.7,229.4,445.9z"></path>	<path class="st4" d="M229.1,446.2c-0.4-0.6-0.6-1.4-0.6-2.2c-0.1-1.4,0.3-2.7,0.9-3.9c0.3-0.6,0.8-1,1.5-1.1c0.4,0,0.8,0.2,1,0.6  c0.1,0.3,0.2,0.6,0.2,0.8c0.2,1.4-0.2,2.8-1,3.9c-0.9,1.2-1.8,1.5-1.9,1.4s0.7-0.5,1.4-1.7c0.4-0.7,0.6-1.4,0.7-2.1  c0.1-0.4,0.1-0.9,0-1.3c-0.1-0.5-0.2-0.9-0.4-0.8s-0.6,0.4-0.8,0.7c-0.2,0.4-0.4,0.8-0.6,1.2c-0.3,0.7-0.4,1.5-0.4,2.3  C229,445.4,229.3,446.2,229.1,446.2z"></path>	<polygon class="st4" points="206.8,321.8 251.9,381.7 230.8,399.8 209.1,371.4  "></polygon>	<path class="st4" d="M111.2,324.6c0,0,72.6-22.1,79.3-21.8s19.3,24.3,19.3,24.3l-20.4-0.7c-5.2,12.8-14.9,26-25.8,39.3l-41.7-1.9  L111.2,324.6z"></path>	<path class="st4" d="M170.6,307.1c0,0.1-7.4,2.5-16.7,5.2s-16.8,4.9-16.8,4.7s7.4-2.5,16.7-5.2S170.5,307,170.6,307.1z"></path>	<path class="st4" d="M187.4,325.9h20.4c10.2,0,19.2,6.4,22.6,16l0,0c1.6,4.5,2.3,9.3,2.1,14.1l-1.6,83h-27.4l-0.5-26.5l-3.5-50.4  l-23.8,1l-13.5-0.8L187.4,325.9z"></path>	<path class="st5" d="M188.1,325.5c-0.1,0.6-0.2,1.2-0.4,1.8c-0.4,1.6-0.9,3.1-1.4,4.7c-0.8,2.3-1.8,4.5-3,6.6  c-1.5,2.6-3.1,5.1-5,7.4c-3.5,4.1-7.2,8-11.1,11.7l-3.5,3.4c-0.4,0.4-0.9,0.8-1.3,1.2c0.4-0.5,0.8-0.9,1.2-1.3c0.8-0.8,2-2,3.4-3.5  c3.8-3.7,7.5-7.7,10.9-11.8c3.4-4.2,6.1-8.8,8.1-13.8c0.7-1.9,1.3-3.5,1.6-4.6C187.6,326.6,187.8,326.1,188.1,325.5z"></path>	<path class="st5" d="M213,326.5c-1.2,0-2.5-0.1-3.7-0.2c-2.3-0.1-5.4-0.2-8.9-0.1s-6.6,0.3-8.9,0.4c-1.2,0.1-2.5,0.2-3.7,0.2  c0.3-0.1,0.7-0.2,1-0.2c0.6-0.1,1.6-0.2,2.7-0.4c2.3-0.2,5.4-0.5,9-0.6c3-0.1,6,0,9,0.3c1.1,0.1,2.1,0.2,2.7,0.3  C212.4,326.3,212.7,326.4,213,326.5z"></path>	<path class="st4" d="M203.4,423.8c0-0.2-0.1-0.5-0.1-0.7c0-0.5-0.1-1.2-0.1-2c-0.1-1.8-0.2-4.3-0.3-7.3c-0.3-6.2-0.6-14.7-1.2-24.1  s-1.3-17.9-1.8-24c-0.2-3-0.4-5.5-0.6-7.3c-0.1-0.8-0.1-1.5-0.1-2c0-0.2,0-0.5,0-0.7c0.1,0.2,0.1,0.5,0.1,0.7l0.2,2  c0.2,1.8,0.4,4.2,0.8,7.3c0.6,6.1,1.4,14.6,1.9,24s0.9,17.9,1.1,24.1c0.1,3,0.1,5.5,0.2,7.3c0,0.8,0,1.5,0,2  C203.4,423.3,203.4,423.6,203.4,423.8z"></path>	<path class="st5" d="M232.5,352.8c0.1,0,0.1,19-0.2,42.4s-0.6,42.4-0.7,42.4s-0.1-19,0.2-42.4S232.4,352.8,232.5,352.8z"></path>	<path class="st4" d="M210.1,349.7c-2,0.8-4,1.7-5.9,2.8c-1.8,1.2-3.5,2.6-5.1,4c0.3-0.6,0.7-1.1,1.2-1.5c2.2-2.2,4.9-3.9,7.9-4.8  C208.9,349.9,209.5,349.8,210.1,349.7z"></path>	<g class="st10">		<path d="M162.3,362.2c5.5,1,11.6-0.7,16.4-3.6c4.7-3,8.2-7.6,9.6-13c0.6-2.4,0.8-4.9,1.4-7.3c0.5-2.5,1.8-4.7,3.7-6.3   c2.3-1.7,8-2.8,9.7-5.1c0-0.3-6.8,0.4-9.1,0.6c-2.5,0.1-6.6,0.8-6.5,0.5c-0.7,2.4-1.5,4.8-2.4,7.1   C180.2,343.5,169.3,356.1,162.3,362.2"></path>	</g>	<polygon class="st4" points="49.2,420.9 56.9,471.4 64.5,471.4 60.8,421.1  "></polygon>	<polygon class="st4" points="184.9,421.1 184.9,471.4 193,471.4 196,420.9  "></polygon>	<path class="st5" d="M47.8,265c0,0-10.8,0.4-14.1,5c-5.8,8-2.5,14.9-2.9,17.3s18.4,133.7,18.4,133.7h7.7l139.1,1.3l6.7-16.2  l-3.2-43.9l-37.2,0.2c0,0-15.2-43.7-28.6-46.7c-9-2-30.2-1.3-43-0.6c-6.4,0.3-12.4-2.8-15.9-8.1L47.8,265z"></path>	<path class="st4" d="M171.1,415.8c0,0-0.8,0.1-2.2,0.2s-3.7,0.1-6.5,0.1c-5.6,0.1-13.8,0.1-24,0.1c-20.4,0-48.9-0.2-81-0.5h-0.2  v-0.2c-0.6-2.8-1.2-5.6-1.8-8.5s-1.2-5.8-1.8-8.8c-7-35.6-11.1-68.3-13.3-91.9c-1.1-11.8-1.8-21.4-2.2-28.1  c-0.2-3.3-0.3-5.9-0.4-7.6c0-0.9-0.1-1.5-0.1-2s0-0.7,0-0.7s0,0.2,0.1,0.7s0.1,1.1,0.1,2c0.1,1.8,0.3,4.3,0.5,7.6  c0.5,6.6,1.2,16.2,2.3,28c2.2,23.6,6.3,56.3,13.3,91.9c0.6,3,1.2,5.9,1.8,8.8c0.6,2.9,1.2,5.7,1.8,8.5l-0.2-0.2l81,0.6l24,0.1h6.5  c0.7,0,1.3-0.1,1.7-0.1L171.1,415.8z"></path>	<path class="st4" d="M169.7,422c0-0.2,0-0.4,0.1-0.6c0.1-0.5,0.1-1,0.3-1.8s0.3-1.7,0.4-2.8s0.3-2.3,0.4-3.7s0.3-2.9,0.3-4.5  s0.1-3.4,0.1-5.2c0-4-0.3-8-0.7-11.9c-0.5-4-1.2-7.9-2.1-11.8c-0.8-3.6-1.7-6.8-2.6-9.4c-0.4-1.3-0.8-2.5-1.2-3.5s-0.7-1.9-1-2.7  l-0.6-1.7c-0.1-0.2-0.1-0.4-0.2-0.6c0.1,0.2,0.2,0.4,0.3,0.6l0.7,1.6c0.3,0.7,0.7,1.6,1,2.6s0.9,2.2,1.3,3.5  c0.9,2.6,1.9,5.8,2.7,9.4c0.9,3.9,1.6,7.8,2.1,11.8c0.4,4,0.7,8,0.7,12c0,1.9-0.1,3.6-0.2,5.2s-0.2,3.2-0.4,4.5s-0.3,2.6-0.5,3.7  s-0.3,2-0.5,2.8s-0.3,1.3-0.4,1.8C169.8,421.6,169.7,421.8,169.7,422z"></path>	<path class="st4" d="M67.7,327.9c0.2-0.2,0.4-0.3,0.6-0.5c0.4-0.3,1-0.8,1.7-1.3l1.2-0.9c0.5-0.3,1-0.6,1.6-1  c1.2-0.8,2.5-1.5,3.9-2.2l2.3-1.1c0.8-0.4,1.7-0.7,2.6-1.1s1.8-0.8,2.8-1.1l3-1c4.5-1.3,9.2-2.3,13.8-2.9c4.7-0.6,9.4-0.9,14.1-0.9  c2.2,0,4.2,0.1,6.2,0.2s3.7,0.3,5.3,0.5c2.6,0.3,5.1,0.8,7.6,1.4l2,0.6c0.2,0.1,0.5,0.1,0.7,0.2c-0.2,0-0.5-0.1-0.7-0.1l-2.1-0.5  c-1.8-0.4-4.4-0.9-7.6-1.2c-1.6-0.2-3.4-0.3-5.3-0.5s-4-0.2-6.1-0.2c-4.7,0-9.4,0.3-14,0.9c-4.6,0.6-9.2,1.5-13.8,2.8l-3,0.9  c-1,0.3-1.9,0.7-2.8,1s-1.8,0.6-2.6,1s-1.6,0.7-2.3,1.1c-1.3,0.6-2.6,1.3-3.9,2.1c-0.6,0.3-1.1,0.6-1.6,0.9l-1.2,0.9l-1.7,1.2  C68.1,327.6,67.9,327.7,67.7,327.9z"></path>	<path class="st9" d="M150.4,335c0,0,0,0.1-0.1,0.3s-0.2,0.5-0.3,1c-0.5,1.2-1.2,2.3-2.1,3.3c-1.4,1.5-3,2.8-4.8,3.8  c-1.1,0.6-2.3,1.1-3.5,1.5c-1.4,0.4-2.8,0.7-4.2,0.9c-3.3,0.3-6.6,0.1-9.8-0.6c-3.5-0.6-7.1-1.6-11-2.5c-4-1.1-8.1-1.6-12.2-1.6  c-2.2,0-4.3,0.4-6.4,1c-2.1,0.7-4.1,1.7-5.9,3c-3.5,2.7-6.4,6.1-8.7,9.9c-2.3,3.6-4.1,7.4-6,10.9c-1.8,3.3-3.9,6.4-6.3,9.3  c-2.1,2.5-4.7,4.6-7.7,6.1c-2.5,1.2-5.1,1.8-7.9,1.9c-2.1,0-4.1-0.3-6-1.1c-0.7-0.3-1.4-0.7-2-1.1c-0.5-0.4-1-0.7-1.3-1l-0.7-0.7  c-0.2-0.2-0.2-0.3-0.2-0.3s0.1,0.1,0.3,0.2l0.7,0.7c0.3,0.3,0.8,0.6,1.3,1c0.6,0.4,1.3,0.7,2,1c1.9,0.7,3.9,1.1,5.9,1  c2.7-0.1,5.3-0.7,7.7-1.9c2.9-1.4,5.5-3.5,7.5-6c2.4-2.9,4.4-6,6.2-9.3c1.9-3.5,3.7-7.2,6-10.9c2.3-3.9,5.3-7.3,8.8-10  c1.8-1.4,3.9-2.4,6.1-3.1c2.1-0.6,4.3-1,6.6-1c4.2,0,8.3,0.6,12.3,1.7c3.8,0.9,7.5,2,10.9,2.6c3.2,0.7,6.5,0.9,9.7,0.6  c1.4-0.1,2.8-0.4,4.1-0.8c1.2-0.4,2.4-0.8,3.5-1.4c1.8-0.9,3.4-2.2,4.8-3.6C148.9,338.2,149.8,336.7,150.4,335z"></path>	<path class="st9" d="M201.3,399l-0.4,0.1l-1.3,0.3c-0.7,0.2-1.3,0.4-2,0.6c-0.4,0.2-0.8,0.3-1.2,0.5c-0.5,0.2-0.9,0.4-1.4,0.7  c-2.3,1.3-4.5,2.9-6.4,4.8c-2.3,2.1-4.8,4.7-7.8,7.2c-1.6,1.3-3.3,2.5-5.1,3.5c-1,0.5-2,1-3.1,1.3l-1.6,0.5  c-0.6,0.1-1.1,0.2-1.7,0.3c-2.4,0.3-4.8,0.2-7.2-0.4c-2.5-0.6-4.9-1.5-7.2-2.7c-4.8-2.6-9.3-5.8-13.3-9.6  c-4.2-3.8-8.5-7.8-13.5-11.1c-2.4-1.6-5.1-3-7.9-3.9c-2.7-0.9-5.6-1.3-8.4-1.2c-2.8,0.2-5.5,0.8-8,1.9c-2.4,1-4.8,2.3-7.1,3.7  c-4.4,2.7-8.4,5.6-12.5,7.9c-9.4,5-20.1,7.1-30.6,5.8c-2.3-0.3-4.5-0.7-6.7-1.4c0.2,0,0.3,0,0.5,0.1l1.3,0.3c1.1,0.2,2.8,0.5,5,0.8  c6.2,0.7,12.4,0.3,18.5-1.3c4.2-1.1,8.2-2.6,11.9-4.7c4-2.2,8.1-5.1,12.5-7.9c2.3-1.4,4.6-2.7,7.1-3.7c2.6-1.1,5.3-1.8,8.2-2  c2.9-0.2,5.8,0.2,8.6,1.2c2.8,1,5.5,2.3,8,4c5.1,3.3,9.4,7.4,13.6,11.2c4,3.7,8.4,6.9,13.1,9.5c2.2,1.2,4.6,2.1,7.1,2.8  c2.3,0.5,4.7,0.7,7.1,0.4c0.6-0.1,1.1-0.2,1.7-0.3l1.6-0.4c1-0.4,2-0.8,3-1.3c1.8-0.9,3.5-2.1,5.1-3.4c3-2.5,5.5-5,7.9-7.1  c2-1.8,4.1-3.4,6.5-4.8c0.5-0.3,0.9-0.5,1.4-0.7c0.4-0.2,0.8-0.4,1.3-0.5c0.7-0.2,1.4-0.4,2.1-0.6l1.3-0.2L201.3,399z"></path>	<path class="st9" d="M62.1,289.7c0,0.4-0.1,0.9-0.3,1.3c-0.3,1.1-0.8,2.2-1.3,3.3c-3.7,7.1-11.5,11.2-19.5,10.2  c-1.2-0.1-2.3-0.4-3.4-0.8c-0.4-0.1-0.8-0.3-1.2-0.5c1.5,0.4,3.1,0.7,4.7,0.9c7.8,0.8,15.3-3.1,19.2-10  C60.9,292.7,61.6,291.2,62.1,289.7z"></path></g><g id="freepik--Notifications--inject-42">	<path class="st9" d="M186,158.3H375c3.8,0,6.9,3.1,6.9,6.9v51.2c0,3.8-3.1,6.9-6.9,6.9H186c-3.8,0-6.9-3.1-6.9-6.9v-51.2  C179.1,161.4,182.2,158.3,186,158.3z"></path>	<path class="st4" d="M375,223.4c0.4,0,0.9-0.1,1.3-0.2c1.3-0.3,2.5-0.9,3.4-1.8c0.7-0.7,1.2-1.5,1.6-2.4c0.4-1.1,0.6-2.3,0.5-3.4  c0-2.6,0-5.5,0-8.8c0-6.6,0-14.8,0-24.2c0-4.7,0-9.8,0-15.1c0.1-1.3,0-2.7-0.2-4c-0.7-2.7-3.1-4.7-5.9-5c-1.4-0.1-2.9,0-4.4,0  L186,158.6c-1.1,0-2.2,0.3-3.1,0.8c-1,0.5-1.8,1.2-2.4,2.1c-0.6,0.9-1,1.9-1.1,3c-0.1,1.1,0,2.2,0,3.3v13.3c0,8.8,0,17.5,0,26v6.4  c0,1.1,0,2.1,0,3.2c0,1,0.3,2,0.8,2.9c1,1.8,2.7,3.1,4.7,3.4c1,0.1,2,0.1,3,0.1H215l83.3,0.1l56.1,0.1l15.3,0.1h4L375,223.4  c0.1-0.1-0.4-0.1-1.3-0.1h-4h-15.3l-56.1,0.1l-83.3,0.1h-27.2c-1,0-2.1,0-3.1-0.1c-3.3-0.6-5.8-3.4-5.9-6.8c0-1.1,0-2.1,0-3.2  v-45.7c0-1.1,0-2.2,0.1-3.4c0.3-2.4,1.7-4.4,3.8-5.6c1-0.6,2.2-0.8,3.4-0.8l185.3,0.1c1.5,0,2.9,0,4.4,0c3,0.3,5.5,2.4,6.2,5.2  c0.2,0.7,0.3,1.4,0.2,2.1v2c0,5.3,0,10.4,0,15.1c0,9.4,0,17.5,0,24.2c0,3.3,0,6.3,0,8.8c0.1,1.2-0.1,2.4-0.5,3.5  c-0.9,2.2-2.8,3.8-5.1,4.2c-0.3,0.1-0.7,0.1-1,0.1L375,223.4z"></path>	<path class="st4" d="M367.4,171.7c-0.1,0-0.1,0-0.2-0.1c-0.1-0.1-0.1-0.3,0-0.4l5-4.8c0.1-0.1,0.3-0.1,0.4,0c0.1,0.1,0.1,0.3,0,0.4  l-5,4.8C367.5,171.6,367.4,171.7,367.4,171.7z"></path>	<path class="st4" d="M372.4,171.7c-0.1,0-0.1,0-0.2-0.1l-5-4.8c-0.1-0.1-0.1-0.2,0-0.3c0,0,0,0,0,0c0.1-0.1,0.3-0.1,0.4,0l5,4.8  c0.1,0.1,0.1,0.3,0,0.4C372.5,171.7,372.4,171.7,372.4,171.7z"></path>	<path class="st8" d="M222.8,203.5l-2-2.9c-1.2-1.7-1.9-3.8-1.9-5.9v-6.5c0-5.2-3.8-9.7-9-10.5v-3.1c0-0.8-0.6-1.4-1.4-1.4l0,0  c-0.8,0-1.4,0.6-1.4,1.4c0,0,0,0,0,0v3c-5.3,0.6-9.4,5.2-9.4,10.5v6.7c0,2.3-0.8,4.6-2.2,6.4l-1.8,2.2L222.8,203.5z"></path>	<path class="st8" d="M206.7,208.2c1.6,0.7,3.5,0.3,4.8-0.8c0.5-0.5,1-1.1,1.2-1.8l-8.5-0.1C204.6,206.7,205.5,207.7,206.7,208.2z"></path>	<path class="st4" d="M337,180.3c0,0.1-22.7,0.3-50.8,0.3s-50.8-0.1-50.8-0.3s22.7-0.3,50.8-0.3S337,180.2,337,180.3z"></path>	<path class="st0" d="M360.9,192.6c0,0.1-28.1,0.3-62.7,0.3s-62.7-0.1-62.7-0.3s28.1-0.3,62.7-0.3S360.9,192.4,360.9,192.6z"></path>	<path class="st0" d="M360.9,200c0,0.1-28.1,0.3-62.7,0.3s-62.7-0.1-62.7-0.3s28.1-0.3,62.7-0.3S360.9,199.8,360.9,200z"></path>	<path class="st2" d="M217,233.5h125.5c3.8,0,6.9,3.1,6.9,6.9v30.8c0,3.8-3.1,6.9-6.9,6.9H217c-3.8,0-6.9-3.1-6.9-6.9v-30.8  C210.1,236.6,213.2,233.5,217,233.5z"></path>	<path class="st4" d="M342.6,278.2c0,0,0.3,0,0.9-0.1c0.9-0.1,1.7-0.4,2.5-0.9c2.1-1.2,3.4-3.5,3.4-5.9v-3.2c0-4.5,0-10,0-16.4  c0-3.2,0-6.6,0-10.3c0-0.9,0-1.8-0.2-2.7c-0.2-0.9-0.6-1.7-1.2-2.5c-1.2-1.5-3-2.5-4.9-2.6l-126,0.1c-3,0-5.7,2.1-6.5,5  c-0.2,0.7-0.2,1.5-0.2,2.2v2.3c0,1.5,0,3,0,4.5v22c0,0.7,0,1.5,0,2.1c0.1,0.7,0.2,1.4,0.5,2c1.1,2.6,3.7,4.2,6.5,4.1h16.4l56.6,0  l38.2,0.1l10.4,0h2.7L342.6,278.2c0-0.1-0.4-0.1-1-0.1h-2.7h-10.4l-38.2,0.1l-56.6,0.1h-16.3c-3,0.1-5.8-1.6-7-4.4  c-0.3-0.7-0.5-1.4-0.5-2.1c-0.1-0.8,0-1.5,0-2.2V241c0-0.8,0-1.6,0.2-2.3c0.8-3.2,3.7-5.4,7-5.4l126,0.1c3.1,0.2,5.7,2.4,6.4,5.4  c0.2,0.9,0.3,1.8,0.2,2.8c0,3.6,0,7.1,0,10.3c0,6.4,0,11.9,0,16.4c0,1.1,0,2.2,0,3.2c0,0.9-0.2,1.9-0.6,2.8  c-0.6,1.4-1.6,2.5-2.9,3.2c-0.8,0.5-1.7,0.7-2.6,0.8C343.3,278.2,342.9,278.3,342.6,278.2z"></path>	<path class="st4" d="M339.5,242.8c-0.1,0-0.1,0-0.2-0.1c-0.1-0.1-0.1-0.2,0-0.3c0,0,0,0,0,0l3.4-3.3c0.1-0.1,0.3-0.1,0.4,0  c0,0,0,0,0,0c0.1,0.1,0.1,0.3,0,0.4l-3.4,3.3C339.6,242.8,339.5,242.8,339.5,242.8z"></path>	<path class="st4" d="M342.9,242.8c-0.1,0-0.1,0-0.2-0.1l-3.4-3.3c-0.1-0.1-0.1-0.3,0-0.4c0.1-0.1,0.2-0.1,0.3,0l3.4,3.3  c0.1,0.1,0.1,0.3,0,0.4C343,242.8,343,242.8,342.9,242.8z"></path>	<path class="st5" d="M240.1,264.6l-1.4-2c-0.8-1.2-1.3-2.6-1.3-4.1V254c0-3.6-2.6-6.6-6.2-7.2v-2.1c0-0.6-0.4-1-1-1l0,0  c-0.6,0-1,0.4-1,1v2.1c-3.7,0.4-6.4,3.5-6.4,7.2v4.6c0,1.6-0.5,3.1-1.5,4.4l-1.2,1.5L240.1,264.6z"></path>	<path class="st5" d="M229.1,267.8c1.1,0.4,2.4,0.2,3.3-0.6c0.4-0.3,0.7-0.8,0.8-1.3h-5.8C227.7,266.8,228.3,267.5,229.1,267.8z"></path>	<path class="st4" d="M318.6,248.6c0,0.1-15.6,0.3-34.9,0.3s-34.9-0.1-34.9-0.3s15.6-0.3,34.9-0.3S318.6,248.5,318.6,248.6z"></path>	<path class="st0" d="M335,257.1c0,0.1-19.3,0.3-43.1,0.3s-43.1-0.1-43.1-0.3s19.3-0.3,43.1-0.3S335,256.9,335,257.1z"></path>	<path class="st0" d="M335,262.1c0,0.1-19.3,0.3-43.1,0.3s-43.1-0.1-43.1-0.3s19.3-0.3,43.1-0.3S335,262,335,262.1z"></path>	<path class="st2" d="M217.6,285.2H342c3.8,0,6.9,3.1,6.9,6.9v30.5c0,3.8-3.1,6.9-6.9,6.9H217.6c-3.8,0-6.9-3.1-6.9-6.9v-30.5  C210.6,288.3,213.7,285.2,217.6,285.2z"></path>	<path class="st4" d="M342,329.6c0,0,0.3,0,0.9-0.1c0.9-0.1,1.7-0.4,2.5-0.9c1.3-0.7,2.3-1.8,2.9-3.1c0.4-0.8,0.6-1.7,0.6-2.7v-3.2  c0-4.5,0-10,0-16.3c0-3.2,0-6.6,0-10.2c0.1-0.9,0-1.8-0.2-2.7c-0.2-0.9-0.6-1.7-1.2-2.5c-1.2-1.5-2.9-2.5-4.9-2.6l-125,0  c-3,0-5.7,2.1-6.5,5c-0.2,0.7-0.3,1.4-0.2,2.2v6.7c0,6,0,11.8,0,17.6v4.3c0,0.7,0,1.4,0,2.1c0.1,0.7,0.2,1.4,0.5,2  c1.1,2.6,3.7,4.2,6.4,4.1h16.2l56.2,0l37.9,0.1l10.3,0h2.7H342c0,0-0.3,0-0.9,0h-2.7l-10.3,0l-37.9,0.1l-56.2,0.1h-16.3  c-3,0.1-5.7-1.6-6.9-4.4c-0.3-0.7-0.5-1.4-0.5-2.1c0-0.7,0-1.4,0-2.2c0-1.4,0-2.9,0-4.3v-24.2c0-0.8,0.1-1.5,0.2-2.3  c0.9-3.2,3.7-5.4,7-5.4l125,0.1c2,0.1,3.9,1.2,5.1,2.8c0.6,0.8,1,1.6,1.2,2.6c0.2,0.9,0.3,1.8,0.2,2.8c0,3.6,0,7,0,10.2  c0,6.4,0,11.8,0,16.3c0,1.1,0,2.2,0,3.2c-0.1,2.5-1.4,4.7-3.6,5.9c-0.8,0.4-1.7,0.7-2.5,0.8C342.7,329.6,342.4,329.6,342,329.6z"></path>	<path class="st4" d="M339,294.4c-0.1,0-0.1,0-0.2-0.1c-0.1-0.1-0.1-0.2,0-0.3c0,0,0,0,0,0l3.4-3.3c0.1-0.1,0.3-0.1,0.4,0  c0.1,0.1,0.1,0.3,0,0.4l-3.4,3.3C339.1,294.4,339.1,294.4,339,294.4z"></path>	<path class="st4" d="M342.4,294.4c-0.1,0-0.1,0-0.2-0.1l-3.4-3.3c-0.1-0.1-0.1-0.3,0-0.4c0.1-0.1,0.3-0.1,0.4,0l3.4,3.3  c0.1,0.1,0.1,0.3,0,0.4C342.5,294.3,342.5,294.4,342.4,294.4z"></path>	<path class="st0" d="M240.4,316l-1.4-2c-0.8-1.2-1.3-2.6-1.3-4.1v-4.4c0-3.6-2.6-6.6-6.1-7.1v-2.1c0-0.6-0.4-1-1-1l0,0  c-0.6,0-1,0.4-1,1v2.1c-3.6,0.4-6.4,3.5-6.4,7.2v4.6c0,1.6-0.5,3.1-1.5,4.4l-1.1,1.5H240.4z"></path>	<path class="st0" d="M229.5,319.2c1.1,0.4,2.4,0.2,3.2-0.6c0.4-0.3,0.7-0.8,0.8-1.3h-5.8C228.1,318.2,228.7,318.9,229.5,319.2z"></path>	<path class="st4" d="M318.3,300.2c0,0.1-15.5,0.3-34.6,0.3s-34.6-0.1-34.6-0.3s15.5-0.3,34.6-0.3S318.3,300,318.3,300.2z"></path>	<path class="st0" d="M334.6,308.6c0,0.1-19.2,0.3-42.8,0.3s-42.8-0.1-42.8-0.3s19.1-0.3,42.8-0.3S334.6,308.4,334.6,308.6z"></path>	<path class="st0" d="M334.6,313.6c0,0.1-19.2,0.3-42.8,0.3s-42.8-0.1-42.8-0.3s19.1-0.3,42.8-0.3S334.6,313.4,334.6,313.6z"></path></g><g id="freepik--Plant--inject-42">	<path class="st5" d="M444.5,272.7c-10.4,5.4-18.3,14.6-24,24.8s-9.4,21.3-13,32.4l-3.2,57.1c12-20.5,21.7-44.6,24.3-68.2l-8-0.7  c5.4-0.8,9.9-4.7,12.8-9.3s4.4-9.9,5.8-15.2l-9.8,1.4C437,289.8,442.5,281.8,444.5,272.7z"></path>	<path class="st8" d="M444.5,272.7c-10.4,5.4-18.3,14.6-24,24.8s-9.4,21.3-13,32.4l-3.2,57.1c12-20.5,21.7-44.6,24.3-68.2l-8-0.7  c5.4-0.8,9.9-4.7,12.8-9.3s4.4-9.9,5.8-15.2l-9.8,1.4C437,289.8,442.5,281.8,444.5,272.7z"></path>	<g class="st10">		<path d="M444.5,272.7c-10.4,5.4-18.3,14.6-24,24.8s-9.4,21.3-13,32.4l-3.2,57.1c12-20.5,21.7-44.6,24.3-68.2l-8-0.7   c5.4-0.8,9.9-4.7,12.8-9.3s4.4-9.9,5.8-15.2l-9.8,1.4C437,289.8,442.5,281.8,444.5,272.7z"></path>	</g>	<path class="st8" d="M402.5,400.4c0,0-26.1-31.3-25.9-61.2h10.6c0,0-11.5-7.5-10.6-11.8s1.2-20.2,1.2-20.2l9.7,2.4  c0,0-7.2-3.6-8.1-9.4s2.1-32.3,2.1-32.3s11.8,12.4,15.4,25s13.1,27.5,10.3,66.1S402.5,400.4,402.5,400.4z"></path>	<path class="st8" d="M415.7,403.3c0,0,28.3-18.9,34.6-43l-8.5-2.3c0,0,10.9-3.6,11.1-7.1s3.5-16.5,3.5-16.5l-8.3-0.2  c0,0,6.6-1.3,8.6-5.7s5.3-26.4,5.3-26.4s-12.2,7.4-17.9,16.8s-16.6,19.2-22.8,50.9S415.7,403.3,415.7,403.3z"></path>	<path class="st4" d="M388.6,295.3c0,0.1,0.1,0.2,0.1,0.3c0.1,0.2,0.1,0.6,0.2,1c0.2,0.9,0.5,2.1,0.8,3.7s0.8,3.6,1.2,5.9  s1,4.9,1.5,7.8c1.1,5.8,2.3,12.7,3.5,20.5s2.4,16.2,3.4,25.2s1.8,17.5,2.4,25.3s1,14.8,1.2,20.7c0.1,3,0.2,5.6,0.3,8s0.1,4.4,0.1,6  s0,2.9,0,3.8v1c0,0.1,0,0.2,0,0.3c0-0.1,0-0.2,0-0.3c0-0.2,0-0.6,0-1c0-0.9-0.1-2.2-0.1-3.8s-0.1-3.7-0.2-6s-0.2-5-0.4-8  c-0.3-5.9-0.8-12.9-1.4-20.7s-1.5-16.3-2.5-25.3s-2.2-17.5-3.4-25.2s-2.3-14.7-3.4-20.5c-0.5-2.9-1-5.5-1.5-7.8s-0.8-4.3-1.1-5.9  s-0.6-2.8-0.7-3.7c-0.1-0.4-0.1-0.7-0.2-1C388.7,295.5,388.6,295.4,388.6,295.3z"></path>	<path class="st8" d="M398.8,419.5c0,0-23.9-27.1-31.3-43.5l5.6-2.4c-4.1,0.7-8.2-1.1-11.4-3.7s-5.5-6.1-7.7-9.6l7.4-1.2  c-6.8-1.9-12.6-6.4-16.1-12.5c8.7,1.4,16.6,6.2,23.1,12.2c5.2,5,9.8,10.4,14,16.2c2.1,2.8,3.9,5.8,5.4,8.9  C391.8,392.2,398.8,409.6,398.8,419.5z"></path>	<path class="st4" d="M450.7,317.9c0,0.1-0.1,0.2-0.1,0.3l-0.4,0.8c-0.4,0.7-0.8,1.7-1.5,3c-1.3,2.6-3.1,6.4-5.3,11.1  c-4.4,9.4-10.2,22.5-15.9,37.3s-10.3,28.4-13.3,38.3c-1.5,5-2.8,9-3.6,11.8c-0.4,1.4-0.7,2.4-1,3.2l-0.3,0.8c0,0.1-0.1,0.2-0.1,0.3  c0-0.1,0-0.2,0-0.3c0-0.2,0.1-0.5,0.2-0.9c0.2-0.8,0.5-1.9,0.9-3.2c0.8-2.8,1.9-6.9,3.4-11.8c3-10,7.5-23.6,13.2-38.4  s11.6-27.9,16.1-37.3c2.2-4.7,4.1-8.5,5.5-11c0.7-1.3,1.2-2.3,1.5-3l0.4-0.8C450.6,318,450.7,317.9,450.7,317.9z"></path>	<path class="st4" d="M400.9,431.2c-0.1-0.2-0.1-0.3-0.1-0.5c-0.1-0.4-0.1-0.9-0.2-1.4c-0.2-1.2-0.5-3.1-0.9-5.3s-1-4.8-1.8-7.7  s-1.8-6-3-9.2s-2.6-6.2-3.9-8.9s-2.6-5.1-3.7-7s-2.1-3.5-2.8-4.6l-0.8-1.2c-0.1-0.1-0.2-0.3-0.2-0.5c0,0,0.1,0.1,0.3,0.4l0.9,1.2  c0.8,1,1.8,2.6,2.9,4.5s2.5,4.3,3.9,7s2.7,5.7,3.9,9s2.2,6.4,3,9.3s1.3,5.5,1.7,7.8s0.6,4.1,0.8,5.3c0.1,0.6,0.1,1.1,0.1,1.5  C400.9,430.9,400.9,431,400.9,431.2z"></path>	<rect x="380.1" y="424.8" class="st5" width="52.4" height="10.7"></rect>	<polygon class="st5" points="385.1,435.5 390.7,471.4 422.4,471.4 427.6,435.5  "></polygon>	<path class="st4" d="M429.2,435.5c0,0.2-9.9,0.3-22.1,0.3s-22.1-0.1-22.1-0.3s9.9-0.3,22.1-0.3S429.2,435.3,429.2,435.5z"></path></g><path class="st9" d="M121.6,170.1l1.1-12.9c-13.9-9.2-17.7-28-8.4-41.9s28-17.7,41.9-8.4s17.7,28,8.4,41.9 c-7,10.5-19.7,15.5-32,12.7l0,0L121.6,170.1z"></path><path class="st4" d="M121.6,170.1l11.1-8.6l0.1-0.1l-0.1-0.1l0,0l-0.1,0.2c2.4,0.5,4.8,0.8,7.2,0.8c2.9,0,5.8-0.5,8.5-1.3 c1.5-0.5,3-1.1,4.4-1.8c0.7-0.4,1.5-0.8,2.2-1.2l2.2-1.4c6.3-4.5,10.5-11.3,12-18.9c0.9-4.2,0.8-8.6-0.2-12.8c-1.1-4.4-3.1-8.5-6-12 c-3-3.7-6.8-6.6-11.1-8.6l-1.7-0.7c-0.6-0.2-1.2-0.4-1.7-0.6s-1.1-0.4-1.7-0.5l-1.8-0.4c-0.6-0.1-1.2-0.2-1.8-0.3l-1.8-0.2h-1.8 c-0.6,0-1.2,0-1.8,0c-4.6,0.3-9.1,1.6-13.2,3.8c-3.8,2.1-7.2,5-9.7,8.5c-4.6,6.3-6.6,14.2-5.6,22c0.5,3.3,1.5,6.5,2.9,9.5 c1.3,2.6,2.9,5,4.9,7.1c1.6,1.8,3.5,3.3,5.5,4.6v-0.1C122,165.4,121.6,169.5,121.6,170.1c0.1-0.6,0.5-4.7,1.2-12.9v-0.1l0,0 c-2-1.3-3.8-2.9-5.4-4.6c-1.9-2.1-3.6-4.5-4.8-7.1c-1.4-3-2.4-6.1-2.9-9.4c-1-7.7,1-15.5,5.6-21.8c2.6-3.5,5.9-6.4,9.6-8.4 c4-2.2,8.4-3.5,13-3.7c0.6,0,1.2,0,1.8,0h1.8l1.8,0.2c0.6,0,1.2,0.1,1.8,0.3l1.8,0.4c0.6,0.1,1.1,0.3,1.7,0.5s1.2,0.3,1.7,0.6 l1.7,0.7c4.3,1.9,8,4.8,10.9,8.5c2.8,3.5,4.8,7.5,5.9,11.9c1,4.1,1.1,8.4,0.3,12.6c-1.5,7.5-5.7,14.2-11.9,18.7l-2.1,1.4 c-0.7,0.4-1.5,0.8-2.2,1.2c-1.4,0.7-2.9,1.3-4.4,1.8c-2.7,0.8-5.6,1.3-8.4,1.3c-2.4,0-4.8-0.2-7.2-0.8l-0.1,0.2l0,0v-0.2 C125.6,166.9,122.1,169.7,121.6,170.1z"></path><g>	<path class="st8" d="M138.5,128.8l6.1,7.7c0.3,0.3,0.2,0.7-0.1,1l-7.8,6.1c-2.4,1.9-5.9,1.4-7.8-1l0,0l0,0c-1.9-2.4-1.4-5.9,1-7.8  l0,0l7.8-6.1C137.8,128.5,138.2,128.6,138.5,128.8z"></path>	<path class="st12" d="M143,137.7l-6-7.7c-0.3-0.3-0.2-0.7,0.1-1l0,0l7.8-6.1c2.4-1.9,5.9-1.4,7.8,1l0,0l0,0c1.9,2.4,1.4,5.9-1,7.8  l0,0l-7.8,6C143.6,137.9,143.2,137.9,143,137.7z"></path></g></svg>