<svg width="669" height="92" viewBox="0 0 669 92" fill="none" xmlns="http://www.w3.org/2000/svg">
<path d="M77.48 40.08L59.56 72.08H41.64L23.72 40.08V90H0.68V0.399994H25L50.6 47.76L76.2 0.399994H100.52V90H77.48V40.08ZM186.97 90H115.93V0.399994H186.97V18.32H138.97V35.6H176.73V53.52H138.97V72.08H186.97V90ZM247.1 0.399994C256.743 0.399994 264.039 2.91733 268.988 7.952C274.023 12.9013 276.54 20.1973 276.54 29.84V60.56C276.54 70.2027 274.023 77.5413 268.988 82.576C264.039 87.5253 256.743 90 247.1 90H197.18V0.399994H247.1ZM253.5 29.84C253.5 22.16 249.66 18.32 241.98 18.32H220.22V72.08H241.98C249.66 72.08 253.5 68.24 253.5 60.56V29.84ZM331.545 90H285.465V72.08H296.985V18.32H285.465V0.399994H331.545V18.32H320.025V72.08H331.545V90ZM340.367 71.44C363.748 72.72 379.578 73.36 387.855 73.36C389.818 73.36 391.354 72.8053 392.463 71.696C393.658 70.5013 394.255 68.9227 394.255 66.96V55.44H364.815C355.855 55.44 349.327 53.4347 345.231 49.424C341.22 45.328 339.215 38.8 339.215 29.84V26C339.215 17.04 341.22 10.5547 345.231 6.544C349.327 2.448 355.855 0.399994 364.815 0.399994H409.743V18.32H369.935C364.815 18.32 362.255 20.88 362.255 26V28.56C362.255 33.68 364.815 36.24 369.935 36.24H392.975C401.338 36.24 407.482 38.2027 411.407 42.128C415.332 46.0533 417.295 52.1973 417.295 60.56V66.96C417.295 75.3227 415.332 81.4667 411.407 85.392C407.482 89.3173 401.338 91.28 392.975 91.28C388.623 91.28 384.015 91.1947 379.151 91.024L367.375 90.512C358.671 90.0853 349.668 89.488 340.367 88.72V71.44ZM442.305 90H417.345L451.265 0.399994H476.865L510.785 90H485.825L480.065 74H448.065L442.305 90ZM453.825 57.36H474.305L464.065 27.28L453.825 57.36ZM540.22 90H517.18V0.399994H588.22V18.32H540.22V39.44H577.98V57.36H540.22V90ZM668.22 90H597.18V0.399994H668.22V18.32H620.22V35.6H657.98V53.52H620.22V72.08H668.22V90Z" fill="#32D7DB"/>
</svg>
